<?xml version="1.0" encoding="utf-8"?>
<!-- Generator: Adobe Illustrator 27.0.1, SVG Export Plug-In . SVG Version: 6.00 Build 0)  -->
<svg version="1.1" id="Layer_1" xmlns="http://www.w3.org/2000/svg" xmlns:xlink="http://www.w3.org/1999/xlink" x="0px" y="0px"
	 viewBox="0 0 20 20" style="enable-background:new 0 0 20 20;" xml:space="preserve">
<style type="text/css">
	.st0{fill:#9DA1A8;}
</style>
<circle class="st0" cx="2.1" cy="2.8" r="0"/>
<path class="st0" d="M9.5,19.9c-0.8,0-1.7-0.1-2.6-0.2c-0.9-0.1-1.8-0.3-2.6-0.6c-0.2-0.1-0.5-0.1-0.7-0.2c-0.2-0.1-0.5-0.2-0.7-0.3
	L2.2,16l0.4-0.1c1.3,1,2.7,1.9,4.3,2.5c1.6,0.7,3,1,4.2,1s2.2-0.3,3-0.9c0.8-0.6,1.2-1.4,1.2-2.5c0-0.9-0.3-1.8-1-2.5
	c-0.6-0.7-1.4-1.4-2.3-1.9c-0.9-0.5-2.1-1.1-3.7-1.9c-2-1-3.5-1.8-4.5-2.5c-1-0.7-1.5-1.5-1.5-2.5c0-1.6,0.8-2.7,2.3-3.5
	c1.5-0.8,3.4-1.1,5.7-1.1c2.1,0,4.1,0.3,6,0.8l0.9,2.4l-0.4,0.2c-1-0.8-2.3-1.5-3.8-2c-1.5-0.5-3-0.8-4.3-0.8c-1.2,0-2.2,0.2-3,0.6
	s-1.2,1-1.2,1.8c0,0.7,0.4,1.4,1.3,2C6.8,5.7,8.1,6.4,10,7.3c1.7,0.8,3,1.5,4,2.1c1,0.6,1.9,1.3,2.7,2.1c0.7,0.8,1.1,1.7,1.1,2.7
	c0,1.8-0.8,3.2-2.4,4.1C13.7,19.4,11.8,19.9,9.5,19.9z"/>
</svg>
