<?xml version="1.0" encoding="UTF-8"?><svg id="Layer_1" xmlns="http://www.w3.org/2000/svg" viewBox="0 0 200 200"><path d="M100,2C45.88,2,2,45.88,2,100s43.88,98,98,98,98-43.88,98-98S154.12,2,100,2Zm59.65,122.79c-.31,6.41-1.31,10.76-2.8,14.56-1.49,3.98-3.55,7.28-6.91,10.64-3.36,3.3-6.72,5.35-10.64,6.91-3.79,1.49-8.15,2.49-14.56,2.8-6.41,.31-8.46,.37-24.76,.37s-18.35-.06-24.76-.37c-6.41-.31-10.76-1.31-14.56-2.8-3.98-1.49-7.28-3.55-10.64-6.91-3.3-3.36-5.35-6.72-6.91-10.64-1.49-3.79-2.49-8.15-2.8-14.56-.31-6.41-.37-8.46-.37-24.76s.06-18.35,.37-24.76c.31-6.41,1.31-10.76,2.8-14.56,1.49-3.98,3.55-7.34,6.91-10.64s6.72-5.35,10.64-6.91c3.86-1.49,8.21-2.49,14.56-2.8,6.41-.31,8.46-.37,24.76-.37s18.35,.06,24.76,.37c6.41,.31,10.76,1.31,14.56,2.8,3.98,1.49,7.28,3.55,10.64,6.91,3.3,3.36,5.35,6.72,6.91,10.64,1.49,3.79,2.49,8.15,2.8,14.56,.31,6.41,.37,8.46,.37,24.76s-.06,18.35-.37,24.76Z"/><path d="M99.99,80.06c-11.01,0-19.97,8.9-19.97,19.97s8.96,19.97,19.97,19.97,20.03-8.96,19.97-19.97c0-11.01-8.9-19.97-19.97-19.97Z"/><path d="M146.77,64.64c-1.06-2.8-2.36-4.79-4.48-6.91-2.12-2.12-4.11-3.42-6.91-4.48-2.12-.81-5.29-1.8-11.14-2.05-6.35-.31-8.27-.37-24.26-.37s-17.92,.06-24.26,.37c-5.85,.25-9.02,1.24-11.14,2.05-2.8,1.06-4.79,2.36-6.91,4.48s-3.42,4.11-4.48,6.91c-.81,2.12-1.8,5.29-2.05,11.14-.31,6.35-.37,8.21-.37,24.26s.06,17.92,.37,24.26c.25,5.85,1.24,9.02,2.05,11.14,1.06,2.8,2.36,4.79,4.48,6.91s4.11,3.42,6.91,4.48c2.12,.81,5.29,1.8,11.14,2.05,6.35,.31,8.21,.37,24.26,.37s17.92-.06,24.26-.37c5.85-.25,9.02-1.24,11.14-2.05,2.8-1.06,4.79-2.36,6.91-4.48,2.12-2.12,3.42-4.11,4.48-6.91,.81-2.12,1.8-5.29,2.05-11.14,.31-6.35,.37-8.27,.37-24.26s-.06-17.92-.37-24.26c-.25-5.85-1.24-9.02-2.05-11.14Zm-46.78,66.19c-16.98,0-30.79-13.75-30.79-30.79s13.81-30.86,30.79-30.86,30.79,13.81,30.79,30.86-13.75,30.79-30.79,30.79Zm32.04-55.62c-3.98,0-7.22-3.23-7.22-7.22s3.23-7.22,7.22-7.22,7.22,3.23,7.22,7.22-3.23,7.22-7.22,7.22Z"/></svg>