<?xml version="1.0" encoding="UTF-8"?><svg id="Layer_1" xmlns="http://www.w3.org/2000/svg" viewBox="0 0 1900 516.96"><defs><style>.cls-1{fill:#1d1d1b;}</style></defs><g><path class="cls-1" d="M99.06,353.55c-11.08,0-22.64-.99-34.7-2.97-12.07-1.98-24.02-4.75-35.89-8.31-3.17-.79-6.33-1.68-9.49-2.67-3.17-.98-6.33-2.27-9.49-3.86L0,300.75l5.93-1.78c17.4,13.85,36.87,25.21,58.43,34.11,21.55,8.9,40.63,13.35,57.24,13.35s30.15-3.86,40.63-11.57c10.47-7.71,15.72-19.08,15.72-34.11,0-12.65-4.36-24.03-13.05-34.11-8.7-10.08-19.19-18.58-31.44-25.51-12.26-6.91-28.87-15.32-49.83-25.21-27.29-13.05-47.66-24.41-61.1-34.11-13.45-9.69-20.17-20.85-20.17-33.52,0-21.36,10.47-37.17,31.44-47.46,20.96-10.28,46.86-15.42,77.71-15.42,28.07,0,55.17,3.76,81.27,11.27l12.46,32.63-5.93,2.97c-13.45-11.47-30.65-20.76-51.61-27.88-20.97-7.12-40.54-10.68-58.73-10.68-16.61,0-30.25,2.67-40.93,8.01-10.68,5.34-16.02,13.35-16.02,24.03,0,9.89,6.02,18.89,18.09,26.99,12.06,8.11,30.55,18.09,55.47,29.96,22.54,10.68,40.83,20.08,54.87,28.18,14.03,8.11,26.1,17.8,36.18,29.07,10.09,11.27,15.13,23.64,15.13,37.07,0,24.13-11.08,42.91-33.22,56.35-22.15,13.44-48.64,20.17-79.49,20.17Z"/><path class="cls-1" d="M380.84,354.14c-24.91,0-48.55-5.25-70.89-15.72-22.35-10.47-40.54-26-54.57-46.57-14.04-20.56-21.06-45.28-21.06-74.15,0-43.1,13.94-75.73,41.82-97.88,27.88-22.14,63.77-33.22,107.67-33.22,17.8,0,35.09,2.18,51.9,6.52,16.8,4.36,30.74,11.27,41.82,20.76,11.07,9.49,16.61,21.56,16.61,36.19,0,10.29-4.06,19.78-12.16,28.47-8.11,8.7-18.09,16.52-29.96,23.43-11.86,6.92-27.69,15.13-47.46,24.62-24.52,12.26-43.6,22.64-57.24,31.14-13.65,8.51-23.73,18.59-30.25,30.25-6.53,11.67-5.84,24.82,2.07,39.45l-4.15,2.37c-7.52-14.24-9-26.99-4.45-38.26,4.54-11.27,12.16-21.15,22.84-29.66,10.68-8.5,25.7-18.88,45.08-31.14,16.21-10.28,29.16-19.18,38.85-26.69,9.69-7.51,17.99-16.21,24.91-26.1,6.91-9.88,10.38-20.96,10.38-33.22,0-15.81-6.03-28.67-18.09-38.56-12.07-9.88-27.98-14.83-47.75-14.83s-38.46,4.85-54.87,14.53c-16.41,9.7-29.27,23.93-38.56,42.71-9.3,18.79-13.94,41.63-13.94,68.51,0,29.27,4.24,53.89,12.75,73.85,8.5,19.98,19.87,34.8,34.11,44.49,14.24,9.69,29.86,14.53,46.86,14.53,20.17,0,39.64-6.72,58.43-20.17,18.78-13.44,33.31-31.63,43.6-54.57l25.51,16.61c-10.68,20.17-26.9,35.59-48.64,46.27-21.75,10.68-45.48,16.02-71.18,16.02Z"/><path class="cls-1" d="M536.26,346.43V95.51h45.08v250.92h-45.08Zm179.15-173.21c0-23.73-5.54-41.62-16.61-53.69-11.08-12.06-24.72-18.09-40.93-18.09-13.85,0-26.6,3.47-38.26,10.38-11.67,6.92-20.97,17.01-27.88,30.25-6.92,13.25-10.38,28.57-10.38,45.97h-3.56c0-20.56,4.54-38.56,13.64-53.98,9.09-15.42,20.96-27.29,35.59-35.59,14.62-8.3,30.45-12.46,47.46-12.46,25.3,0,45.97,7.32,61.99,21.95,16.02,14.63,24.02,36.58,24.02,65.85v170.84h-45.08V173.21Z"/><path class="cls-1" d="M890.39,353.55c-11.08,0-22.64-.99-34.7-2.97-12.07-1.98-24.02-4.75-35.89-8.31-3.17-.79-6.33-1.68-9.49-2.67-3.17-.98-6.33-2.27-9.49-3.86l-9.49-35,5.93-1.78c17.4,13.85,36.87,25.21,58.43,34.11,21.55,8.9,40.63,13.35,57.24,13.35s30.15-3.86,40.63-11.57c10.47-7.71,15.72-19.08,15.72-34.11,0-12.65-4.36-24.03-13.05-34.11-8.7-10.08-19.19-18.58-31.44-25.51-12.26-6.91-28.87-15.32-49.83-25.21-27.29-13.05-47.66-24.41-61.1-34.11-13.45-9.69-20.17-20.85-20.17-33.52,0-21.36,10.47-37.17,31.44-47.46,20.96-10.28,46.86-15.42,77.71-15.42,28.07,0,55.17,3.76,81.27,11.27l12.46,32.63-5.93,2.97c-13.45-11.47-30.65-20.76-51.61-27.88-20.97-7.12-40.54-10.68-58.73-10.68-16.61,0-30.25,2.67-40.93,8.01-10.68,5.34-16.02,13.35-16.02,24.03,0,9.89,6.02,18.89,18.09,26.99,12.06,8.11,30.55,18.09,55.47,29.96,22.54,10.68,40.83,20.08,54.87,28.18,14.03,8.11,26.1,17.8,36.18,29.07,10.09,11.27,15.13,23.64,15.13,37.07,0,24.13-11.08,42.91-33.22,56.35-22.15,13.44-48.64,20.17-79.49,20.17Z"/><path class="cls-1" d="M1157.93,354.14c-25.31,0-47.96-5.14-67.92-15.42-19.97-10.28-35.69-25.8-47.16-46.56-11.48-20.76-17.2-46.17-17.2-76.23,0-27.29,5.73-50.72,17.2-70.29,11.47-19.58,27.19-34.3,47.16-44.19,19.97-9.88,42.61-14.83,67.92-14.83s47.35,4.95,67.33,14.83c19.97,9.89,35.69,24.52,47.16,43.9,11.46,19.38,17.2,42.91,17.2,70.59,0,30.06-5.74,55.46-17.2,76.23-11.48,20.76-27.19,36.29-47.16,46.56-19.97,10.28-42.41,15.42-67.33,15.42Zm0-5.93c17.8,0,33.22-5.64,46.27-16.91,13.05-11.27,23.03-26.89,29.96-46.86,6.91-19.96,10.38-42.8,10.38-68.51s-3.66-49.03-10.97-67.63c-7.32-18.58-17.5-32.52-30.55-41.82-13.05-9.29-28.08-13.94-45.08-13.94-18.59,0-34.31,4.65-47.16,13.94-12.85,9.3-22.74,23.04-29.66,41.23-6.92,18.19-10.38,40.93-10.38,68.22,0,25.31,3.56,48.05,10.68,68.22,7.12,20.17,17.1,35.89,29.96,47.16,12.85,11.27,28.37,16.91,46.57,16.91Z"/><path class="cls-1" d="M1329.95,346.43V95.51h45.08v250.92h-45.08Zm42.12-118.05c0-18.19,5.73-37.17,17.2-56.95,11.47-19.77,25.9-36.68,43.3-50.72,17.4-14.03,33.61-22.44,48.64-25.21l23.13,29.07-1.78,4.15c-23.34-1.97-44.59,1.59-63.77,10.68-19.19,9.1-34.61,21.56-46.27,37.37-11.67,15.82-17.5,33.02-17.5,51.61h-2.97Z"/><path class="cls-1" d="M1557.73,56.95c-8.31,0-15.33-2.76-21.06-8.31-5.74-5.53-8.6-12.25-8.6-20.17s2.86-14.63,8.6-20.17c5.73-5.53,12.75-8.3,21.06-8.3s14.53,2.77,19.87,8.3c5.34,5.54,8.01,12.26,8.01,20.17s-2.67,14.14-8.01,19.87c-5.34,5.74-11.97,8.6-19.87,8.6Zm-23.13,290.07V96.1h45.08v250.92h-45.08Z"/><path class="cls-1" d="M1680.52,355.33c-17.41,0-31.65-5.14-42.71-15.42-11.08-10.28-16.61-24.71-16.61-43.3,0-13.44,3.65-25.9,10.97-37.37,7.31-11.47,16.11-21.55,26.4-30.25,10.28-8.69,23.73-18.58,40.34-29.66,18.19-12.65,31.74-23.13,40.63-31.44,8.9-8.3,13.94-17.4,15.13-27.29-9.49-7.51-20.86-11.96-34.11-13.35-13.26-1.38-27.58,.1-43.01,4.45v-36.18c30.45-4.74,55.96-7.12,76.52-7.12,41.91,0,74.45,9.1,97.58,27.29,23.13,18.2,34.7,48.45,34.7,90.76v114.49c0,6.33,1.48,10.88,4.45,13.65,2.97,2.77,6.02,4.15,9.19,4.15v5.93c-9.1,0-18.19-1.58-27.29-4.74-9.1-3.16-16.61-7.61-22.54-13.35-5.93-5.73-8.9-12.16-8.9-19.28v-119.83c0-32.82-4.85-56.15-14.53-70-9.7-13.84-24.03-20.76-43.01-20.76-9.1,0-19.19,2.08-30.25,6.23-11.08,4.15-22.74,9.59-35,16.31,22.14,1.59,39.35,9.99,51.61,25.21,12.25,15.23,18.39,38.26,18.39,69.11,0,25.31-5.14,48.85-15.42,70.59-10.29,21.76-23.73,39.06-40.34,51.91-16.61,12.85-34.02,19.28-52.2,19.28Zm17.8-16.61c14.24,0,27.88-6.02,40.93-18.09,13.05-12.06,23.53-27.97,31.44-47.75,7.91-19.77,11.86-40.34,11.86-61.69,0-29.66-7.71-51.61-23.13-65.85-1.59,8.3-5.64,16.71-12.16,25.21-6.52,8.51-15.53,18.49-26.99,29.96-17.8,17.41-31.25,32.92-40.34,46.56-9.1,13.65-13.64,29.57-13.64,47.75,0,14.24,2.86,25.12,8.6,32.63,5.73,7.52,13.54,11.27,23.43,11.27Z"/></g><g><path class="cls-1" d="M467.5,514.75c-1.91-5.03-3.82-10.35-5.93-15.68-12.97-.4-30.86-.4-43.93-.1-2.31,5.53-4.42,10.96-6.43,15.78h-19.7c12.16-24.93,23.42-49.96,33.98-74.89,7.24,.9,21.21,1.31,28.45,0,10.55,24.93,22.02,49.96,34.18,74.89h-20.61Zm-10.05-26.04c-5.53-13.87-11.66-27.74-18.09-39.61-4.12,7.64-10.86,23.52-17.49,39.61,10.76,.3,24.83,.3,35.58,0Z"/><path class="cls-1" d="M529.14,451.22c-14.78,.2-25.63,1.1-36.09,2.71,.81-4.72,.81-9.35,0-14.07,33.28,.81,56.9,.81,90.07,0-.8,4.73-.8,9.35,0,14.07-10.55-1.61-21.41-2.51-36.29-2.71-.5,20.71-.2,47.85,.81,63.53h-19.1c1-15.68,1.1-42.92,.6-63.53Z"/><path class="cls-1" d="M656.93,439.86c11.86,1,58.31,1.71,76.7,.2-.4,5.02-.4,10.15,0,15.18-14.07-2.61-40.61-4.22-58.5-4.02-.3,7.84-.3,15.78-.2,23.72,17.59,.3,37.6-.5,51.37-1.41-.4,3.82-.4,8.54,0,12.67-13.77-.8-33.88-1.51-51.37-1.1,0,9.65,.3,19.9,1.61,29.65h-19.6c1.21-18.8,1.21-56.19,0-74.89Z"/><path class="cls-1" d="M762.1,439.86c6.43,.9,12.87,1,18.9,0-1.21,18.8-1.21,56.29,.2,74.89h-19.1c1.21-18.8,1.21-56.09,0-74.89Z"/><path class="cls-1" d="M901.53,439.86c-12.77,26.04-22.42,48.75-33.28,74.89h-26.74c-10.15-26.14-20.41-48.85-33.07-74.89,6.84,.81,12.97,.81,19.8,0,7.74,20.61,20.51,51.67,26.94,64.13,6.43-12.46,19.2-43.53,27.64-64.13,6.53,.81,12.17,.81,18.7,0Z"/><path class="cls-1" d="M928.39,439.86c12.26,1,62.23,1.71,80.62,.3-.4,4.92-.4,10.05,0,15.08-14.07-2.71-43.43-4.32-62.43-4.12-.2,7.14-.3,14.27-.2,21.41,18.7,.3,41.92-.5,55.49-1.41-.4,4.12-.4,8.65,0,12.67-13.67-.8-36.79-1.51-55.49-1.1,0,6.74,0,13.77,.4,20.71,19.1,.2,48.25-1.41,62.23-4.02-.4,5.03-.4,10.35,0,15.38h-80.62c1.21-19.1,1.21-56.4,0-74.89Z"/><path class="cls-1" d="M1087.34,439.86c6.43,.9,13.17,1.1,18.9,0-1.01,14.17-1.21,45.44-.7,63.63,14.78,0,47.55-1.51,61.12-3.82-.4,6.03-.4,10.05,0,15.08h-79.31c.8-24.93,.8-49.96,0-74.89Z"/><path class="cls-1" d="M1235.23,516.96c-29.05,0-44.73-14.68-44.73-39.51,0-15.28-.2-28.45-.81-37.6,6.03,.9,13.07,1,18.7,0-.6,9.15-.81,21.92-.81,38,0,17.39,9.35,27.85,27.64,27.85s27.54-10.45,27.54-27.85c0-16.08-.1-28.85-.7-38,6.03,.9,13.07,1,18.7,0-.5,9.15-.7,23.93-.7,37.6,0,24.83-16.69,39.51-44.83,39.51Z"/><path class="cls-1" d="M1343.62,477.05c-11.56-12.47-23.93-24.83-37.09-37.2,7.94,.81,15.98,.81,23.93,0,7.34,9.35,14.98,18.8,23.22,28.25,8.14-9.45,15.68-18.9,23.02-28.25,7.74,.81,15.68,.81,23.42,0-13.27,12.36-25.73,24.83-37.39,37.09,11.56,12.67,23.93,25.13,36.99,37.8h-25.23c-6.84-9.55-14.17-19-21.81-28.45-7.64,9.45-15.08,18.9-21.91,28.45h-24.33c13.17-12.57,25.63-25.13,37.2-37.7Z"/><path class="cls-1" d="M1427.88,439.86c12.26,1,62.23,1.71,80.62,.3-.4,4.92-.4,10.05,0,15.08-14.07-2.71-43.43-4.32-62.43-4.12-.2,7.14-.3,14.27-.2,21.41,18.7,.3,41.92-.5,55.49-1.41-.4,4.12-.4,8.65,0,12.67-13.67-.8-36.79-1.51-55.49-1.1,0,6.74,0,13.77,.4,20.71,19.1,.2,48.25-1.41,62.23-4.02-.4,5.03-.4,10.35,0,15.38h-80.62c1.21-19.1,1.21-56.4,0-74.89Z"/></g></svg>